#!OML:ASF Y:\EmotionMaleHayes\Project 1\Capture day 1\Session 1\Male1.ASF
:FULLY-SPECIFIED
:DEGREES
642
root 36.3167 17.0021 -0.290193 449.784 77.6346 457.833
lowerback 9.07194 -0.183494 -17.5989
upperback 2.49337 -1.69453 -3.10215
thorax -1.97882 -0.719147 6.69722
lowerneck -21.38 3.07163 3.33901
upperneck 24.0261 3.84028 -1.63616
head 11.4747 1.89801 -0.531169
rclavicle 3.60856e-014 4.01545e-014
rhumerus -51.3653 -6.55433 -78.9625
rradius 26.4573
rwrist 4.55804
rhand -9.91146 -30.9238
rfingers 7.12502
rthumb 16.0689 -60.2775
lclavicle 3.60856e-014 4.01545e-014
lhumerus -10.2269 -13.1493 81.4029
lradius 41.3284
lwrist 3.82877
lhand -19.6 -27.0063
lfingers 7.12502
lthumb 6.72594 2.86685
rfemur -18.9577 -6.91093 2.41353
rtibia 38.2271
rfoot -13.9283 -8.02516
rtoes 15.1742
lfemur 15.0812 0.177117 -34.9379
ltibia 8.38632
lfoot -13.3754 3.10206
ltoes -6.60907
643
root 36.4748 16.9846 -0.285548 451.224 77.1482 459.111
lowerback 8.79885 -0.313949 -18.0875
upperback 2.49376 -1.84336 -3.14375
thorax -1.7689 -0.806323 6.92267
lowerneck -21.8711 2.9167 3.28626
upperneck 24.4165 3.65541 -1.71469
head 11.7141 1.79616 -0.573893
rclavicle -3.639e-014 -1.03766e-013
rhumerus -52.2462 -7.09989 -78.1044
rradius 26.4463
rwrist 4.38956
rhand -9.8433 -30.7817
rfingers 7.12502
rthumb 16.1345 -60.1301
lclavicle -3.639e-014 -1.03766e-013
lhumerus -9.44502 -13.6983 81.1347
lradius 42.0053
lwrist 4.55963
lhand -19.6974 -26.9584
lfingers 7.12502
lthumb 6.63193 2.91779
rfemur -18.98 -6.94077 1.63852
rtibia 34.96
rfoot -13.7087 -8.09677
rtoes 17.2792
lfemur 15.4311 0.123269 -35.4454
ltibia 8.4779
lfoot -13.8291 2.7834
ltoes -6.11464
644
root 36.6323 16.9605 -0.279228 452.517 77.0254 460.192
lowerback 8.54446 -0.456922 -18.2087
upperback 2.42739 -1.99621 -3.09068
thorax -1.65338 -0.889579 7.05233
lowerneck -21.6666 3.03169 3.39719
upperneck 24.3403 3.83329 -1.87344
head 11.6565 1.86795 -0.6245
rclavicle 2.73546e-014 1.61016e-014
rhumerus -53.2063 -7.43288 -77.3823
rradius 26.477
rwrist 3.99055
rhand -10.1051 -30.3849
rfingers 7.12502
rthumb 15.8824 -59.7536
lclavicle 2.73546e-014 1.61016e-014
lhumerus -8.91692 -13.9022 80.8814
lradius 42.8678
lwrist 4.60899
lhand -19.5514 -26.816
lfingers 7.12502
lthumb 6.77291 3.05568
rfemur -19.0015 -6.71106 1.33739
rtibia 31.6617
rfoot -13.3411 -8.10665
rtoes 19.416
lfemur 15.8022 -0.074826 -35.5581
ltibia 8.49974
lfoot -14.3213 2.50829
ltoes -4.58981
645
root 36.7884 16.9332 -0.268903 453.98 76.8599 461.448
lowerback 8.31828 -0.593979 -18.3593
upperback 2.39568 -2.1422 -3.07508
thorax -1.51616 -0.971653 7.15556
lowerneck -21.9246 2.86484 3.14947
upperneck 24.4121 3.57554 -1.54043
head 11.7138 1.76956 -0.499124
rclavicle -7.28981e-015 1.98785e-015
rhumerus -54.0409 -7.75241 -76.8004
rradius 26.5947
rwrist 3.5302
rhand -9.7938 -30.7223
rfingers 7.12502
rthumb 16.1822 -60.0669
lclavicle -7.28981e-015 1.98785e-015
lhumerus -8.45817 -14.2256 80.6072
lradius 43.8185
lwrist 5.064
lhand -19.3891 -26.7881
lfingers 7.12502
lthumb 6.92956 3.07845
rfemur -18.8849 -6.24443 0.974932
rtibia 28.2351
rfoot -12.9988 -8.01403
rtoes 18.8352
lfemur 16.1422 -0.258038 -35.662
ltibia 8.56237
lfoot -14.7377 2.28891
ltoes -4.40673
646
root 36.9505 16.9112 -0.263176 455.137 76.094 462.513
lowerback 8.11649 -0.685737 -19.0358
upperback 2.44564 -2.24987 -3.23668
thorax -1.29129 -1.03917 7.3445
lowerneck -22.1707 2.78478 3.05557
upperneck 24.4607 3.46437 -1.47247
head 11.7738 1.71664 -0.473785
rclavicle 2.44723e-014 -1.78906e-014
rhumerus -54.6468 -8.62636 -75.7643
rradius 26.3472
rwrist 3.73097
rhand -9.46307 -30.8255
rfingers 7.12502
rthumb 16.5006 -60.1439
lclavicle 2.44723e-014 -1.78906e-014
lhumerus -7.83675 -14.5478 80.305
lradius 44.5945
lwrist 5.28754
lhand -19.2863 -26.9634
lfingers 7.12502
lthumb 7.02874 2.8999
rfemur -18.567 -6.03652 -0.165733
rtibia 24.9026
rfoot -12.9202 -7.5066
rtoes 13.7906
lfemur 16.5663 -0.229543 -36.4162
ltibia 8.65653
lfoot -15.08 2.03698
ltoes -5.97375
647
root 37.1191 16.8883 -0.260596 455.763 75.2679 463.117
lowerback 8.05666 -0.760979 -19.7889
upperback 2.40412 -2.38601 -3.40368
thorax -1.23336 -1.10132 7.57426
lowerneck -21.6831 3.04556 3.22385
upperneck 24.0768 3.81253 -1.58182
head 11.5477 1.87756 -0.492635
rclavicle -2.51711e-014 -4.13472e-014
rhumerus -55.3379 -10.4823 -73.6299
rradius 25.8124
rwrist 5.68223
rhand -8.63854 -30.6993
rfingers 7.12502
rthumb 17.2944 -59.9498
lclavicle -2.51711e-014 -4.13472e-014
lhumerus -7.35918 -14.8104 80.0082
lradius 45.0984
lwrist 5.26783
lhand -19.5579 -27.5613
lfingers 7.12502
lthumb 6.76656 2.31062
rfemur -18.0869 -5.80747 -1.39984
rtibia 21.6616
rfoot -11.5345 -6.57808
rtoes -2.70086
lfemur 17.106 -0.0273307 -37.2199
ltibia 8.73758
lfoot -15.4075 1.8147
ltoes -8.28565
648
root 37.2865 16.8607 -0.256406 456.245 74.6391 463.521
lowerback 7.94463 -0.832074 -20.3721
upperback 2.34293 -2.49664 -3.50889
thorax -1.17952 -1.15192 7.77501
lowerneck -21.85 3.01266 3.38264
upperneck 24.2545 3.78794 -1.84954
head 11.6569 1.84532 -0.619116
rclavicle 2.53171e-014 4.21423e-014
rhumerus -56.1615 -10.2202 -73.4576
rradius 26.2159
rwrist 4.76185
rhand -8.3916 -31.2225
rfingers 7.12502
rthumb 17.532 -60.4519
lclavicle 2.53171e-014 4.21423e-014
lhumerus -6.95031 -15.0685 79.7598
lradius 45.6817
lwrist 5.27472
lhand -19.9206 -27.9035
lfingers 7.12502
lthumb 6.41649 1.97935
rfemur -17.5984 -5.3061 -2.39903
rtibia 18.4268
rfoot -11.0742 -5.9288
rtoes -7.85405
lfemur 17.5819 0.213479 -37.7915
ltibia 8.8299
lfoot -15.7597 1.8173
ltoes -11.4098
649
root 37.4544 16.8343 -0.2522 456.309 74.4741 463.429
lowerback 7.51685 -0.881372 -20.4533
upperback 2.40176 -2.44881 -3.51404
thorax -0.88179 -1.1597 7.79282
lowerneck -21.9872 2.96881 3.35458
upperneck 24.1953 3.74762 -1.93007
head 11.6607 1.81105 -0.649803
rclavicle -1.78471e-014 -8.50798e-014
rhumerus -56.4676 -11.0068 -72.3865
rradius 25.5301
rwrist 5.21918
rhand -8.3471 -31.1274
rfingers 7.12502
rthumb 17.5748 -60.353
lclavicle -1.78471e-014 -8.50798e-014
lhumerus -6.3868 -15.2875 79.551
lradius 46.5657
lwrist 5.78381
lhand -19.8049 -27.5391
lfingers 7.12502
lthumb 6.52814 2.3403
rfemur -17.303 -4.59513 -2.78827
rtibia 15.2952
rfoot -10.9514 -5.42917
rtoes -9.16517
lfemur 18.0588 0.231765 -37.9293
ltibia 8.80828
lfoot -16.3182 1.62163
ltoes -10.6545
650
root 37.6086 16.8008 -0.239227 457.834 74.5542 464.562
lowerback 7.23575 -1.0337 -20.2567
upperback 2.27471 -2.59221 -3.43777
thorax -0.832004 -1.23142 7.77147
lowerneck -22.1292 2.88437 3.18525
upperneck 24.2317 3.64406 -1.79865
head 11.6923 1.76426 -0.588402
rclavicle -2.65781e-014 -1.96797e-014
rhumerus -57.0587 -11.5698 -71.5031
rradius 25.2648
rwrist 5.49316
rhand -8.32845 -31.1971
rfingers 7.12502
rthumb 17.5928 -60.4211
lclavicle -2.65781e-014 -1.96797e-014
lhumerus -5.97988 -15.5261 79.3571
lradius 46.9853
lwrist 5.72073
lhand -20.2189 -28.1527
lfingers 7.12502
lthumb 6.1285 1.73867
rfemur -17.3515 -3.73548 -2.96395
rtibia 12.4302
rfoot -10.8284 -5.45393
rtoes -10.3025
lfemur 18.1444 0.103216 -37.612
ltibia 9.04026
lfoot -16.8069 1.44363
ltoes -12.0967
651
root 37.7717 16.7693 -0.222774 459.025 74.3698 465.492
lowerback 7.26465 -1.10304 -20.2746
upperback 1.9772 -2.74058 -3.49148
thorax -1.13917 -1.25797 7.73866
lowerneck -22.2971 2.80233 3.02469
upperneck 24.6822 3.5223 -1.52559
head 11.8859 1.73361 -0.476
rclavicle -8.36604e-015 -1.5207e-014
rhumerus -58.0705 -11.9244 -70.8158
rradius 25.2813
rwrist 5.50461
rhand -8.37197 -31.5532
rfingers 7.12502
rthumb 17.5509 -60.781
lclavicle -8.36604e-015 -1.5207e-014
lhumerus -5.95965 -16.047 79.1897
lradius 47.625
lwrist 6.12894
lhand -20.4823 -28.0307
lfingers 7.12502
lthumb 5.87415 1.8679
rfemur -17.3515 -3.73548 -2.96395
rtibia 12.4302
rfoot -10.8284 -5.45393
rtoes -10.3025
lfemur 18.419 -0.0382022 -37.5757
ltibia 9.19666
lfoot -17.2018 1.04871
ltoes -10.9125
652
root 37.9434 16.7381 -0.208471 459.973 74.0172 466.325
lowerback 6.82637 -1.24782 -20.6221
upperback 2.10079 -2.81753 -3.4996
thorax -0.711228 -1.34124 7.89679
lowerneck -22.7434 2.79052 2.73696
upperneck 24.8845 3.48583 -1.148
head 12.0364 1.73605 -0.286627
rclavicle -7.57867e-016 3.47873e-015
rhumerus -58.4262 -12.2048 -70.312
rradius 25.3774
rwrist 5.44177
rhand -7.7276 -32.8183
rfingers 7.12502
rthumb 18.1709 -61.9895
lclavicle -7.57867e-016 3.47873e-015
lhumerus -5.43188 -16.2087 78.9806
lradius 48.2055
lwrist 6.57331
lhand -20.4545 -27.8777
lfingers 7.12502
lthumb 5.90106 2.02012
rfemur -17.3515 -3.73548 -2.96395
rtibia 12.4302
rfoot -10.8284 -5.45393
rtoes -10.3025
lfemur 18.8351 -0.0681966 -37.7522
ltibia 9.43554
lfoot -17.6036 0.97373
ltoes -11.8392
653
root 38.119 16.7067 -0.202222 460.551 73.3874 466.813
lowerback 6.56447 -1.34791 -21.1276
upperback 2.0883 -2.90501 -3.5908
thorax -0.524492 -1.39692 8.05765
lowerneck -22.7703 2.80614 2.64079
upperneck 24.9238 3.55397 -1.17884
head 12.0569 1.7531 -0.269998
rclavicle 1.04455e-014 1.22253e-014
rhumerus -58.8922 -12.5973 -69.5476
rradius 25.244
rwrist 5.71051
rhand -6.44889 -34.3533
rfingers 7.12502
rthumb 19.4008 -63.4055
lclavicle 1.04455e-014 1.22253e-014
lhumerus -5.24804 -16.2214 78.9652
lradius 48.7928
lwrist 6.73796
lhand -20.4322 -28.0834
lfingers 7.12502
lthumb 5.92254 1.81384
rfemur -17.3515 -3.73548 -2.96395
rtibia 12.4302
rfoot -10.8284 -5.45393
rtoes -10.3025
lfemur 19.2426 -0.0215234 -38.3575
ltibia 9.6899
lfoot -17.919 0.922529
ltoes -13.3234
654
root 38.2853 16.6755 -0.200899 460.815 72.7653 466.885
lowerback 6.33117 -1.40232 -21.5372
upperback 2.03033 -2.93919 -3.70178
thorax -0.426577 -1.41501 8.1451
lowerneck -22.7941 2.78167 2.54286
upperneck 24.8819 3.58633 -1.29267
head 12.0462 1.742 -0.291006
rclavicle -1.51573e-015 -5.96354e-016
rhumerus -59.1892 -12.9 -68.9547
rradius 24.9671
rwrist 5.96047
rhand -6.67154 -34.2839
rfingers 7.12502
rthumb 19.1867 -63.3575
lclavicle -1.51573e-015 -5.96354e-016
lhumerus -5.09112 -16.2455 79.0054
lradius 49.3443
lwrist 6.86281
lhand -20.5632 -28.4159
lfingers 7.12502
lthumb 5.79604 1.48486
rfemur -17.3515 -3.73548 -2.96395
rtibia 12.4302
rfoot -10.8284 -5.45393
rtoes -10.3025
lfemur 19.5062 -0.0691905 -39.063
ltibia 10.0428
lfoot -18.2678 0.598944
ltoes -12.4152
655
root 38.4463 16.6424 -0.195014 461.107 72.6648 466.924
lowerback 6.08998 -1.42856 -21.4135
upperback 1.93353 -2.92129 -3.70496
thorax -0.411551 -1.40253 8.06793
lowerneck -22.7746 2.66115 2.35483
upperneck 24.7655 3.45544 -1.21513
head 11.9885 1.67531 -0.254014
rclavicle 6.64919e-015 -5.48894e-014
rhumerus -59.5347 -12.9103 -68.7386
rradius 24.9696
rwrist 5.95276
rhand -8.0009 -33.0759
rfingers 7.12502
rthumb 17.908 -62.2714
lclavicle 6.64919e-015 -5.48894e-014
lhumerus -5.04594 -16.3643 79.0492
lradius 49.878
lwrist 6.97826
lhand -20.7218 -28.7335
lfingers 7.12502
lthumb 5.64293 1.17139
rfemur -17.3515 -3.73548 -2.96395
rtibia 12.4302
rfoot -10.8284 -5.45393
rtoes -10.3025
lfemur 19.7039 -0.0595309 -39.1052
ltibia 10.3526
lfoot -18.6017 0.72137
ltoes -14.9196
